<svg width="16" height="16" viewBox="0 0 16 16" fill="none" xmlns="http://www.w3.org/2000/svg">
<path d="M12.4375 0.620374L4.30951 8.74837C3.99907 9.05714 3.75296 9.42441 3.58543 9.82894C3.4179 10.2335 3.33227 10.6672 3.33351 11.105V12.0004C3.33351 12.1772 3.40375 12.3468 3.52877 12.4718C3.6538 12.5968 3.82336 12.667 4.00018 12.667H4.89551C5.33335 12.6683 5.76709 12.5827 6.17161 12.4151C6.57614 12.2476 6.94341 12.0015 7.25218 11.691L15.3802 3.56304C15.7698 3.17249 15.9886 2.64336 15.9886 2.09171C15.9886 1.54006 15.7698 1.01093 15.3802 0.620374C14.984 0.241636 14.457 0.0302734 13.9088 0.0302734C13.3607 0.0302734 12.8337 0.241636 12.4375 0.620374ZM14.4375 2.62037L6.30951 10.7484C5.93359 11.122 5.42551 11.3323 4.89551 11.3337H4.66684V11.105C4.66823 10.575 4.87855 10.067 5.25218 9.69104L13.3802 1.56304C13.5226 1.42701 13.7119 1.3511 13.9088 1.3511C14.1058 1.3511 14.2951 1.42701 14.4375 1.56304C14.5775 1.70338 14.6561 1.8935 14.6561 2.09171C14.6561 2.28991 14.5775 2.48003 14.4375 2.62037Z" fill="#040606"/>
</svg>
